<svg xmlns="http://www.w3.org/2000/svg" viewBox="0 0 600 420" role="img" aria-label="爆米花机尺寸演示素材">
  <rect width="600" height="420" fill="#11271f"/><text x="42" y="57" fill="#e7b462" font-family="Arial, sans-serif" font-size="15" letter-spacing="3">COUNTERTOP SCALE / 05</text><text x="42" y="92" fill="#f4f0e8" font-family="Arial, sans-serif" font-size="29" font-weight="700">MAKE THE SIZE OBVIOUS</text>
  <path d="M42 338h514" stroke="#a8b5ac" stroke-opacity=".45" stroke-width="3"/><g transform="translate(230 111)"><path d="M25 33h130l-17 78H42z" fill="#213c31"/><path d="M36 27h108l18 36H18z" fill="#f4f0e8"/><path d="M38 111h102l15 152H23z" fill="#e9eee6"/><rect x="65" y="143" width="45" height="46" rx="10" fill="#17362a"/><path d="M23 263h132l-10 21H34z" fill="#87958d"/></g>
  <path d="M201 112v184m-9-177 9-14 9 14m-9 170-9 14 9 14 9-14" fill="none" stroke="#52c9a4" stroke-width="2"/><text x="130" y="205" fill="#52c9a4" font-family="Arial" font-size="15">12.6 in</text><path d="M246 358h142m-135-8-14 8 14 8m128-8 14 8-14 8" fill="none" stroke="#e7b462" stroke-width="2"/><text x="286" y="389" fill="#e7b462" font-family="Arial" font-size="15">6.7 in</text>
</svg>
