<svg xmlns="http://www.w3.org/2000/svg" viewBox="0 0 600 420" role="img" aria-label="爆米花机清洁演示素材">
  <defs><linearGradient id="cleanBg" x1="0" x2="1"><stop stop-color="#18352a"/><stop offset="1" stop-color="#0d1b16"/></linearGradient></defs><rect width="600" height="420" fill="url(#cleanBg)"/><text x="42" y="58" fill="#e7b462" font-family="Arial, sans-serif" font-size="15" letter-spacing="3">CLEAN PATH / 03</text><text x="42" y="92" fill="#f4f0e8" font-family="Arial, sans-serif" font-size="28" font-weight="700">SHOW, DON’T JUST CLAIM</text>
  <g transform="translate(68 142)"><circle cx="58" cy="58" r="53" fill="#52c9a4" opacity=".14"/><path d="M32 64h52l-7 65H39z" fill="#f4f0e8"/><path d="M29 56h58l-8-22H37z" fill="#b9cbbf"/><path d="M43 32c5-29 28-29 33 0" fill="none" stroke="#f4f0e8" stroke-width="5"/><text x="22" y="157" fill="#a8b5ac" font-family="Arial" font-size="13">01 / tray</text></g>
  <path d="M197 201h72" stroke="#e7b462" stroke-width="3" stroke-dasharray="7 9"/><path d="M250 191l20 10-20 10" fill="none" stroke="#e7b462" stroke-width="3"/>
  <g transform="translate(286 142)"><circle cx="58" cy="58" r="53" fill="#52c9a4" opacity=".14"/><path d="M31 91c29-48 52-55 82-76" fill="none" stroke="#f4f0e8" stroke-width="9" stroke-linecap="round"/><path d="M74 29l24-13 12 22-25 13z" fill="#a6b8a9"/><circle cx="40" cy="101" r="8" fill="#52c9a4"/><circle cx="57" cy="113" r="5" fill="#52c9a4"/><text x="12" y="157" fill="#a8b5ac" font-family="Arial" font-size="13">02 / rinse</text></g>
  <path d="M418 201h72" stroke="#e7b462" stroke-width="3" stroke-dasharray="7 9"/><path d="M471 191l20 10-20 10" fill="none" stroke="#e7b462" stroke-width="3"/>
  <g transform="translate(496 142)"><circle cx="44" cy="58" r="43" fill="#52c9a4" opacity=".14"/><path d="M24 41l14 15 31-32" fill="none" stroke="#52c9a4" stroke-width="9" stroke-linecap="round"/><text x="0" y="157" fill="#a8b5ac" font-family="Arial" font-size="13">03 / ready</text></g>
  <text x="42" y="366" fill="#a8b5ac" font-family="Arial, sans-serif" font-size="15">A cleaner story reduces a very practical hesitation.</text>
</svg>
