<svg xmlns="http://www.w3.org/2000/svg" viewBox="0 0 600 420" role="img" aria-label="家庭电影夜演示素材">
  <defs><linearGradient id="sceneBg" x1="0" x2="1" y1="0" y2="1"><stop stop-color="#38271c"/><stop offset=".55" stop-color="#1b382c"/><stop offset="1" stop-color="#0b1a14"/></linearGradient></defs><rect width="600" height="420" fill="url(#sceneBg)"/><circle cx="482" cy="93" r="72" fill="#e7b462" opacity=".25"/><path d="M0 330c86-46 140-31 210 11 55 33 106 14 156-17 80-50 156-20 234 25v61H0z" fill="#06120d" opacity=".74"/>
  <text x="40" y="61" fill="#f5c67d" font-family="Arial, sans-serif" font-size="15" letter-spacing="3">SCENE / 04</text><text x="40" y="96" fill="#f4f0e8" font-family="Arial, sans-serif" font-size="31" font-weight="700">THE MOVIE NIGHT MOMENT</text>
  <rect x="332" y="155" width="183" height="118" rx="10" fill="#0b1511" stroke="#f4f0e8" stroke-opacity=".25"/><rect x="346" y="169" width="155" height="90" rx="4" fill="#52c9a4" opacity=".22"/><circle cx="269" cy="279" r="41" fill="#e7b462"/><path d="M232 274c19-34 70-34 76 0l-9 66h-56z" fill="#f4f0e8"/><path d="M242 242h55l9 25h-74z" fill="#b6c6bb"/><g fill="#f5dfa4"><circle cx="133" cy="315" r="24"/><circle cx="166" cy="327" r="22"/><circle cx="107" cy="345" r="19"/><circle cx="197" cy="351" r="27"/><circle cx="151" cy="370" r="22"/></g><text x="40" y="389" fill="#a8b5ac" font-family="Arial" font-size="15">Less product spec. More shared ritual.</text>
</svg>
