<svg xmlns="http://www.w3.org/2000/svg" viewBox="0 0 600 420" role="img" aria-label="爆米花机容量演示素材">
  <rect width="600" height="420" fill="#11271f"/><rect x="31" y="30" width="538" height="360" rx="24" fill="#18362a" stroke="#d7efe2" stroke-opacity=".16"/><text x="61" y="79" fill="#e7b462" font-family="Arial, sans-serif" font-size="15" letter-spacing="3">CAPACITY / 02</text><text x="61" y="120" fill="#f4f0e8" font-family="Arial, sans-serif" font-size="43" font-weight="700">4.5 QT</text><text x="64" y="149" fill="#a8b5ac" font-family="Arial, sans-serif" font-size="16">for a shared movie-night bowl</text>
  <g transform="translate(330 78)"><ellipse cx="100" cy="210" rx="108" ry="42" fill="#09160f"/><path d="M23 76h154l-18 178H42z" fill="#f4f0e8"/><path d="M13 69h175l-18-40H31z" fill="#a6b8a9"/><path d="M32 70c11-65 119-65 137 0" fill="none" stroke="#f4f0e8" stroke-width="8"/><path d="M42 236h117" stroke="#52c9a4" stroke-width="3" stroke-dasharray="8 8"/></g>
  <g fill="#f5dfa4"><circle cx="104" cy="265" r="30"/><circle cx="142" cy="281" r="24"/><circle cx="82" cy="302" r="23"/><circle cx="166" cy="316" r="25"/><circle cx="124" cy="330" r="29"/></g><path d="M66 209h174" stroke="#52c9a4" stroke-width="2"/><path d="M66 201v16m174-16v16" stroke="#52c9a4" stroke-width="2"/>
</svg>
