<svg xmlns="http://www.w3.org/2000/svg" viewBox="0 0 600 420" role="img" aria-label="爆米花机主图演示素材">
  <defs><linearGradient id="bg" x1="0" x2="1" y1="0" y2="1"><stop stop-color="#173b2e"/><stop offset="1" stop-color="#0b1d16"/></linearGradient><linearGradient id="machine" x1="0" x2="1"><stop stop-color="#f7f1e5"/><stop offset="1" stop-color="#a8b7ab"/></linearGradient></defs>
  <rect width="600" height="420" fill="url(#bg)"/><circle cx="520" cy="58" r="150" fill="#e7b462" opacity=".13"/><path d="M0 352C125 307 226 404 390 337c78-32 137-18 210 15v68H0z" fill="#52c9a4" opacity=".08"/>
  <text x="36" y="50" fill="#e7b462" font-family="Arial, sans-serif" font-size="15" letter-spacing="3">POP MORI / 01</text><text x="36" y="82" fill="#f4f0e8" font-family="Arial, sans-serif" font-size="28" font-weight="700">MOVIE NIGHT READY</text>
  <g transform="translate(223 102)"><path d="M22 23h140l-18 76H39z" fill="#263f35"/><path d="M34 17h117l20 36H15z" fill="#f4f0e8" opacity=".94"/><path d="M58 17l17-27h39l18 27" fill="none" stroke="#f4f0e8" stroke-width="8" stroke-linecap="round"/><path d="M38 99h106l14 153H24z" fill="url(#machine)"/><rect x="67" y="132" width="48" height="48" rx="12" fill="#18352a"/><circle cx="92" cy="156" r="10" fill="#52c9a4"/><path d="M24 252h134l-12 23H35z" fill="#76867c"/><path d="M53 281h32m30 0h31" stroke="#f4f0e8" stroke-width="9" stroke-linecap="round"/></g>
  <g fill="#f4e5be"><circle cx="110" cy="324" r="23"/><circle cx="145" cy="338" r="18"/><circle cx="85" cy="353" r="20"/><circle cx="169" cy="365" r="24"/><circle cx="129" cy="377" r="22"/></g><text x="36" y="382" fill="#a8b5ac" font-family="Arial, sans-serif" font-size="14">4.5QT · oil-free snacks · one touch</text>
</svg>
